<svg width="48" height="48" viewBox="0 0 48 48" fill="none" xmlns="http://www.w3.org/2000/svg">
<rect width="48" height="48" rx="24" fill="white" fill-opacity="0.04"/>
<rect x="0.5" y="0.5" width="47" height="47" rx="23.5" stroke="white" stroke-opacity="0.1"/>
<path d="M31 29V30" stroke="white" stroke-linecap="round"/>
<path d="M28.5 29V30" stroke="white" stroke-linecap="round"/>
<path d="M26 29V30" stroke="white" stroke-linecap="round"/>
<path d="M23.5 29V30" stroke="white" stroke-linecap="round"/>
<path d="M31 17.1176L31.4804 16.9784L31.4769 16.9675L31 17.1176ZM17 17.1176L16.523 16.9675L16.5198 16.9785L17 17.1176ZM14.8889 32.6431L15.1776 32.2349L14.8889 32.6431ZM14.3371 32.0589L14.7599 31.792L14.3371 32.0589ZM33.6629 32.0589L33.2401 31.792L33.6629 32.0589ZM33.1111 32.6431L32.8224 32.2349L33.1111 32.6431ZM33.1111 25.9451L32.8224 26.3533L33.1111 25.9451ZM33.6629 26.5294L33.2401 26.7962L33.6629 26.5294ZM14.8889 25.9451L15.1776 26.3533L14.8889 25.9451ZM14.3371 26.5294L14.7599 26.7962L14.3371 26.5294ZM19.5 15.5H28.5V14.5H19.5V15.5ZM28.5 15.5C28.9695 15.5 29.3529 15.6109 29.6693 15.8576C29.9904 16.1079 30.2932 16.5376 30.5231 17.2678L31.4769 16.9675C31.2068 16.1094 30.8119 15.4803 30.2841 15.0689C29.7517 14.6538 29.1351 14.5 28.5 14.5V15.5ZM19.5 14.5C18.8649 14.5 18.2483 14.6538 17.7159 15.0689C17.1881 15.4803 16.7932 16.1094 16.5231 16.9675L17.4769 17.2678C17.7068 16.5376 18.0096 16.1079 18.3307 15.8576C18.6471 15.6109 19.0305 15.5 19.5 15.5V14.5ZM30.5198 17.2568L33.3713 27.0949L34.3317 26.8165L31.4802 16.9785L30.5198 17.2568ZM16.5198 16.9785L13.6683 26.8165L14.6287 27.0949L17.4802 17.2568L16.5198 16.9785ZM17.5 26.0882H30.5V25.0882H17.5V26.0882ZM30.5 32.5H17.5V33.5H30.5V32.5ZM17.5 32.5C16.7868 32.5 16.2917 32.4993 15.9105 32.4583C15.5392 32.4183 15.3326 32.3445 15.1776 32.2349L14.6001 33.0513C14.9496 33.2986 15.3463 33.4033 15.8034 33.4525C16.2505 33.5007 16.8088 33.5 17.5 33.5V32.5ZM13.5 29.2941C13.5 30.0278 13.4995 30.6137 13.5444 31.0817C13.5901 31.5567 13.6863 31.9646 13.9142 32.3257L14.7599 31.792C14.6507 31.619 14.5785 31.3881 14.5398 30.986C14.5005 30.577 14.5 30.0475 14.5 29.2941H13.5ZM15.1776 32.2349C15.014 32.1192 14.8716 31.9691 14.7599 31.792L13.9142 32.3257C14.0943 32.6111 14.327 32.8581 14.6001 33.0513L15.1776 32.2349ZM33.5 29.2941C33.5 30.0475 33.4995 30.577 33.4602 30.986C33.4215 31.3881 33.3493 31.619 33.2401 31.792L34.0858 32.3257C34.3137 31.9646 34.4099 31.5567 34.4556 31.0817C34.5005 30.6137 34.5 30.0278 34.5 29.2941H33.5ZM30.5 33.5C31.1912 33.5 31.7495 33.5007 32.1966 33.4525C32.6537 33.4033 33.0504 33.2986 33.3999 33.0513L32.8224 32.2349C32.6674 32.3445 32.4608 32.4183 32.0895 32.4583C31.7083 32.4993 31.2132 32.5 30.5 32.5V33.5ZM33.2401 31.792C33.1284 31.9691 32.986 32.1192 32.8224 32.2349L33.3999 33.0513C33.673 32.8581 33.9057 32.6111 34.0858 32.3257L33.2401 31.792ZM30.5 26.0882C31.2132 26.0882 31.7083 26.0889 32.0895 26.13C32.4608 26.17 32.6674 26.2437 32.8224 26.3533L33.3999 25.5369C33.0504 25.2897 32.6537 25.1849 32.1966 25.1357C31.7495 25.0876 31.1912 25.0882 30.5 25.0882V26.0882ZM34.5 29.2941C34.5 28.5604 34.5005 27.9746 34.4556 27.5066C34.4099 27.0316 34.3137 26.6237 34.0858 26.2625L33.2401 26.7962C33.3493 26.9692 33.4215 27.2002 33.4602 27.6022C33.4995 28.0113 33.5 28.5407 33.5 29.2941H34.5ZM32.8224 26.3533C32.986 26.4691 33.1284 26.6192 33.2401 26.7962L34.0858 26.2625C33.9057 25.9771 33.673 25.7302 33.3999 25.5369L32.8224 26.3533ZM17.5 25.0882C16.8088 25.0882 16.2505 25.0876 15.8034 25.1357C15.3463 25.1849 14.9496 25.2897 14.6001 25.5369L15.1776 26.3533C15.3326 26.2437 15.5392 26.17 15.9105 26.13C16.2917 26.0889 16.7868 26.0882 17.5 26.0882V25.0882ZM14.5 29.2941C14.5 28.5407 14.5005 28.0113 14.5398 27.6022C14.5785 27.2002 14.6507 26.9692 14.7599 26.7962L13.9142 26.2625C13.6863 26.6237 13.5901 27.0316 13.5444 27.5066C13.4995 27.9746 13.5 28.5604 13.5 29.2941H14.5ZM14.6001 25.5369C14.327 25.7302 14.0943 25.9771 13.9142 26.2625L14.7599 26.7962C14.8716 26.6192 15.014 26.4691 15.1776 26.3533L14.6001 25.5369Z" fill="white"/>
</svg>
