<svg width="48" height="48" viewBox="0 0 48 48" fill="none" xmlns="http://www.w3.org/2000/svg">
<rect width="48" height="48" rx="24" fill="white" fill-opacity="0.04"/>
<rect x="0.5" y="0.5" width="47" height="47" rx="23.5" stroke="white" stroke-opacity="0.1"/>
<path d="M24 17C24 15.5858 24 14.8787 24.4393 14.4393C24.8787 14 25.5858 14 27 14H28C29.4142 14 30.1213 14 30.5607 14.4393C31 14.8787 31 15.5858 31 17V17C31 18.4142 31 19.1213 30.5607 19.5607C30.1213 20 29.4142 20 28 20H27C25.5858 20 24.8787 20 24.4393 19.5607C24 19.1213 24 18.4142 24 17V17Z" stroke="white"/>
<path d="M31 15.75L32.6154 15.0769C33.2416 14.816 33.5547 14.6855 33.7774 14.834C34 14.9824 34 15.3216 34 16V18C34 18.6784 34 19.0176 33.7774 19.166C33.5547 19.3145 33.2416 19.184 32.6154 18.9231L31 18.25V15.75Z" stroke="white" strokeWidth="1.5"/>
<path d="M28 34H20M24 29V34" stroke="white" stroke-linecap="round"/>
<path d="M34 25H14" stroke="white" stroke-linecap="round"/>
<path d="M34 22V23C34 25.8284 34 27.2426 33.1213 28.1213C32.2426 29 30.8284 29 28 29H20C17.1716 29 15.7574 29 14.8787 28.1213C14 27.2426 14 25.8284 14 23V21.5C14 18.2125 14 16.5688 14.908 15.4624C15.0742 15.2599 15.2599 15.0742 15.4624 14.908C16.5688 14 18.2125 14 21.5 14" stroke="white" stroke-linecap="round"/>
</svg>
