<svg width="48" height="48" viewBox="0 0 48 48" fill="none" xmlns="http://www.w3.org/2000/svg">
<rect width="48" height="48" rx="24" fill="white" fill-opacity="0.04"/>
<rect x="0.5" y="0.5" width="47" height="47" rx="23.5" stroke="white" stroke-opacity="0.1"/>
<path d="M19 15.3378C20.4709 14.487 22.1786 14 24 14C29.5228 14 34 18.4772 34 24C34 29.5228 29.5228 34 24 34C18.4772 34 14 29.5228 14 24C14 22.1786 14.487 20.4709 15.3378 19" stroke="white" stroke-linecap="round"/>
<path d="M26.8284 31.0711C26.457 31.9997 26.016 32.7362 25.5307 33.2388C25.0454 33.7413 24.5253 34 24 34C23.4747 34 22.9546 33.7413 22.4693 33.2388C21.984 32.7362 21.543 31.9997 21.1716 31.0711C20.8001 30.1425 20.5055 29.0401 20.3045 27.8268C20.1035 26.6136 20 25.3132 20 24C20 22.6868 20.1035 21.3864 20.3045 20.1732C20.5055 18.9599 20.8001 17.8575 21.1716 16.9289C21.543 16.0003 21.984 15.2638 22.4693 14.7612C22.9546 14.2587 23.4747 14 24 14C24.5253 14 25.0454 14.2587 25.5307 14.7612C26.016 15.2638 26.457 16.0003 26.8284 16.9289C27.1999 17.8575 27.4945 18.9599 27.6955 20.1732C27.8965 21.3864 28 22.6868 28 24C28 25.3132 27.8965 26.6136 27.6955 27.8268" stroke="white" stroke-linecap="round"/>
<path d="M14 24H22M34 24H26" stroke="white" stroke-linecap="round"/>
</svg>
