<svg width="244" height="34" viewBox="0 0 244 34" fill="none" xmlns="http://www.w3.org/2000/svg">
<path d="M0 26.6134V1.2673H20.2669V6.66241H6.31505V11.2247H15.5306V16.4388H6.31505V21.2183H20.4138V26.6134H0Z" fill="white"/>
<path d="M32.1243 26.9755C30.1906 26.9755 28.4405 26.541 26.874 25.672C25.3319 24.803 24.1081 23.6202 23.2024 22.1235C22.2968 20.6028 21.8439 18.913 21.8439 17.0543C21.8439 15.1715 22.2968 13.4817 23.2024 11.9851C24.1081 10.4885 25.3319 9.30564 26.874 8.43663C28.4405 7.54349 30.1906 7.09691 32.1243 7.09691C33.7153 7.09691 35.2328 7.41072 36.677 8.03834C38.1211 8.64182 39.345 9.51083 40.3485 10.6454L36.7137 14.3749C36.0283 13.6024 35.3307 13.0472 34.6209 12.7093C33.9111 12.3472 33.1278 12.1661 32.2711 12.1661C31.4144 12.1661 30.6434 12.3834 29.9581 12.8179C29.2727 13.2283 28.7342 13.8076 28.3426 14.5559C27.9509 15.2801 27.7551 16.1129 27.7551 17.0543C27.7551 17.9716 27.9509 18.8044 28.3426 19.5527C28.7587 20.2769 29.3217 20.8562 30.0315 21.2907C30.7413 21.7011 31.5368 21.9063 32.418 21.9063C33.2257 21.9063 33.9723 21.7373 34.6576 21.3994C35.343 21.0614 36.0039 20.5424 36.6403 19.8424L40.1649 23.4633C39.1859 24.5737 37.9865 25.4427 36.5668 26.0703C35.1472 26.6738 33.6663 26.9755 32.1243 26.9755Z" fill="white"/>
<path d="M42.517 26.6134V1.2673L48.4649 0V8.76251C49.9335 7.65211 51.6714 7.09691 53.6785 7.09691C55.1961 7.09691 56.5301 7.42279 57.6805 8.07455C58.8554 8.72631 59.7733 9.63152 60.4341 10.7902C61.095 11.9489 61.4255 13.2886 61.4255 14.8094V26.6134H55.4776V15.606C55.4776 14.5438 55.1594 13.699 54.523 13.0714C53.8866 12.4437 53.0299 12.1299 51.9529 12.1299C51.1941 12.1299 50.521 12.2627 49.9335 12.5282C49.3706 12.7938 48.881 13.1679 48.4649 13.6507V26.6134H42.517Z" fill="white"/>
<path d="M74.6183 26.9755C72.6357 26.9755 70.8489 26.541 69.2579 25.672C67.6669 24.7788 66.4063 23.584 65.4762 22.0873C64.5461 20.5907 64.081 18.913 64.081 17.0543C64.081 15.1956 64.5461 13.5179 65.4762 12.0213C66.4063 10.5005 67.6669 9.30564 69.2579 8.43663C70.8489 7.54349 72.6357 7.09691 74.6183 7.09691C76.601 7.09691 78.3878 7.54349 79.9788 8.43663C81.5698 9.30564 82.8304 10.5005 83.7605 12.0213C84.6906 13.5179 85.1557 15.1956 85.1557 17.0543C85.1557 18.913 84.6906 20.5907 83.7605 22.0873C82.8304 23.584 81.5698 24.7788 79.9788 25.672C78.3878 26.541 76.601 26.9755 74.6183 26.9755ZM74.6183 21.9063C75.524 21.9063 76.3317 21.689 77.0416 21.2545C77.7514 20.82 78.3144 20.2407 78.7305 19.5165C79.1466 18.7682 79.3546 17.9475 79.3546 17.0543C79.3546 16.137 79.1466 15.3163 78.7305 14.5921C78.3144 13.8438 77.7391 13.2524 77.0048 12.8179C76.295 12.3834 75.4995 12.1661 74.6183 12.1661C73.7372 12.1661 72.9294 12.3834 72.1951 12.8179C71.4853 13.2524 70.9223 13.8438 70.5062 14.5921C70.0901 15.3163 69.882 16.137 69.882 17.0543C69.882 17.9475 70.0901 18.7682 70.5062 19.5165C70.9223 20.2407 71.4853 20.82 72.1951 21.2545C72.9294 21.689 73.7372 21.9063 74.6183 21.9063Z" fill="white"/>
<path d="M95.6187 26.9755C93.7829 26.9755 92.0818 26.7703 90.5153 26.36C88.9487 25.9255 87.5903 25.2978 86.4398 24.4771L89.2669 20.5304C90.4908 21.2545 91.6045 21.7856 92.608 22.1235C93.6116 22.4373 94.6029 22.5942 95.582 22.5942C96.5611 22.5942 97.3321 22.4615 97.895 22.196C98.4825 21.9063 98.7762 21.5321 98.7762 21.0735C98.7762 20.7114 98.6171 20.4217 98.2989 20.2045C97.9807 19.9631 97.4789 19.7941 96.7936 19.6975L92.9385 19.1182C91.0048 18.8285 89.5239 18.2009 88.4959 17.2354C87.4923 16.2457 86.9906 14.9663 86.9906 13.3972C86.9906 12.0937 87.321 10.9833 87.9819 10.066C88.6672 9.1246 89.6341 8.41249 90.8824 7.92971C92.1307 7.42279 93.6238 7.16933 95.3617 7.16933C96.7813 7.16933 98.1888 7.36244 99.584 7.74867C100.979 8.1349 102.276 8.71424 103.476 9.48669L100.649 13.2524C99.5962 12.6489 98.5926 12.2144 97.638 11.9489C96.6834 11.6592 95.7288 11.5144 94.7742 11.5144C94.0154 11.5144 93.4035 11.6471 92.9385 11.9127C92.4734 12.1541 92.2409 12.4799 92.2409 12.8903C92.2409 13.2765 92.4122 13.5903 92.7549 13.8317C93.0976 14.049 93.685 14.218 94.5172 14.3387L98.3723 14.918C100.282 15.1835 101.75 15.8111 102.778 16.8009C103.831 17.7664 104.357 18.9975 104.357 20.4941C104.357 21.7494 103.978 22.8598 103.219 23.8253C102.46 24.7909 101.42 25.5634 100.098 26.1427C98.8007 26.6979 97.3076 26.9755 95.6187 26.9755Z" fill="white"/>
<path d="M116.498 26.9755C114.515 26.9755 112.716 26.541 111.101 25.672C109.51 24.7788 108.249 23.584 107.319 22.0873C106.389 20.5907 105.924 18.913 105.924 17.0543C105.924 15.1956 106.364 13.5179 107.245 12.0213C108.151 10.5247 109.375 9.34185 110.917 8.47284C112.459 7.57969 114.172 7.13312 116.057 7.13312C117.966 7.13312 119.655 7.59176 121.124 8.50905C122.592 9.4022 123.743 10.6333 124.575 12.2023C125.432 13.7714 125.86 15.5698 125.86 17.5974V19.0458H112.018C112.288 19.6493 112.643 20.1803 113.083 20.639C113.548 21.0976 114.099 21.4597 114.735 21.7252C115.372 21.9666 116.057 22.0873 116.791 22.0873C117.599 22.0873 118.333 21.9666 118.994 21.7252C119.655 21.4597 120.218 21.0976 120.683 20.639L124.612 24.0788C123.388 25.0927 122.127 25.8289 120.83 26.2875C119.557 26.7462 118.113 26.9755 116.498 26.9755ZM111.908 14.9542H120.022C119.827 14.3266 119.521 13.7955 119.105 13.361C118.713 12.9024 118.248 12.5524 117.709 12.311C117.171 12.0454 116.583 11.9127 115.947 11.9127C115.286 11.9127 114.686 12.0334 114.148 12.2748C113.609 12.5162 113.144 12.8662 112.753 13.3248C112.386 13.7593 112.104 14.3025 111.908 14.9542Z" fill="white"/>
<path d="M128.64 34V7.459H134.515V8.87114C136.057 7.76074 137.795 7.20554 139.729 7.20554C141.589 7.20554 143.265 7.65211 144.759 8.54526C146.252 9.41427 147.439 10.5971 148.32 12.0937C149.201 13.5662 149.642 15.2197 149.642 17.0543C149.642 18.8889 149.189 20.5545 148.283 22.0511C147.402 23.5236 146.19 24.6944 144.648 25.5634C143.131 26.4324 141.43 26.8669 139.545 26.8669C138.639 26.8669 137.77 26.7583 136.938 26.541C136.106 26.3237 135.323 26.0099 134.588 25.5996V34H128.64ZM138.7 21.9063C139.68 21.9063 140.548 21.7011 141.307 21.2907C142.066 20.8562 142.666 20.2769 143.106 19.5527C143.571 18.8044 143.804 17.9716 143.804 17.0543C143.804 16.137 143.571 15.3163 143.106 14.5921C142.666 13.8438 142.054 13.2645 141.271 12.8541C140.512 12.4196 139.655 12.2023 138.7 12.2023C137.868 12.2023 137.109 12.3351 136.424 12.6006C135.739 12.842 135.127 13.2162 134.588 13.7231V20.4217C135.102 20.8804 135.714 21.2425 136.424 21.508C137.134 21.7735 137.893 21.9063 138.7 21.9063Z" fill="white"/>
<path d="M162.141 26.9755C160.158 26.9755 158.359 26.541 156.744 25.672C155.153 24.7788 153.892 23.584 152.962 22.0873C152.032 20.5907 151.567 18.913 151.567 17.0543C151.567 15.1956 152.008 13.5179 152.889 12.0213C153.794 10.5247 155.018 9.34185 156.56 8.47284C158.102 7.57969 159.816 7.13312 161.7 7.13312C163.61 7.13312 165.299 7.59176 166.767 8.50905C168.236 9.4022 169.386 10.6333 170.218 12.2023C171.075 13.7714 171.503 15.5698 171.503 17.5974V19.0458H157.662C157.931 19.6493 158.286 20.1803 158.726 20.639C159.192 21.0976 159.742 21.4597 160.379 21.7252C161.015 21.9666 161.7 22.0873 162.435 22.0873C163.242 22.0873 163.977 21.9666 164.638 21.7252C165.299 21.4597 165.861 21.0976 166.327 20.639L170.255 24.0788C169.031 25.0927 167.771 25.8289 166.473 26.2875C165.201 26.7462 163.756 26.9755 162.141 26.9755ZM157.552 14.9542H165.666C165.47 14.3266 165.164 13.7955 164.748 13.361C164.356 12.9024 163.891 12.5524 163.353 12.311C162.814 12.0454 162.227 11.9127 161.59 11.9127C160.929 11.9127 160.33 12.0334 159.791 12.2748C159.253 12.5162 158.788 12.8662 158.396 13.3248C158.029 13.7593 157.747 14.3025 157.552 14.9542Z" fill="white"/>
<path d="M183.862 26.9755C181.928 26.9755 180.178 26.541 178.612 25.672C177.07 24.803 175.846 23.6202 174.94 22.1235C174.035 20.6028 173.582 18.913 173.582 17.0543C173.582 15.1715 174.035 13.4817 174.94 11.9851C175.846 10.4885 177.07 9.30564 178.612 8.43663C180.178 7.54349 181.928 7.09691 183.862 7.09691C185.453 7.09691 186.971 7.41072 188.415 8.03834C189.859 8.64182 191.083 9.51083 192.086 10.6454L188.452 14.3749C187.766 13.6024 187.069 13.0472 186.359 12.7093C185.649 12.3472 184.866 12.1661 184.009 12.1661C183.152 12.1661 182.381 12.3834 181.696 12.8179C181.011 13.2283 180.472 13.8076 180.08 14.5559C179.689 15.2801 179.493 16.1129 179.493 17.0543C179.493 17.9716 179.689 18.8044 180.08 19.5527C180.497 20.2769 181.06 20.8562 181.769 21.2907C182.479 21.7011 183.275 21.9063 184.156 21.9063C184.964 21.9063 185.71 21.7373 186.396 21.3994C187.081 21.0614 187.742 20.5424 188.378 19.8424L191.903 23.4633C190.924 24.5737 189.724 25.4427 188.305 26.0703C186.885 26.6738 185.404 26.9755 183.862 26.9755Z" fill="white"/>
<path d="M204.416 26.8669C202.091 26.8669 200.329 26.36 199.129 25.3461C197.955 24.3081 197.367 22.7874 197.367 20.7838V12.3472H193.439V7.459H197.367V2.53461L203.315 1.2673V7.459H208.749V12.3472H203.315V19.6251C203.315 20.47 203.499 21.0735 203.866 21.4356C204.257 21.7735 204.931 21.9425 205.885 21.9425C206.375 21.9425 206.815 21.9184 207.207 21.8701C207.623 21.7977 208.076 21.689 208.565 21.5442V26.2875C208.027 26.4565 207.341 26.5893 206.509 26.6858C205.677 26.8065 204.979 26.8669 204.416 26.8669Z" fill="white"/>
<path d="M211.071 26.6134V7.459H217.019V9.37806C217.655 8.60561 218.402 8.02627 219.258 7.64004C220.115 7.22968 221.07 7.02449 222.122 7.02449C223.175 7.04863 223.921 7.20554 224.362 7.49521V12.6006C223.97 12.4075 223.53 12.2627 223.04 12.1661C222.551 12.0696 222.049 12.0213 221.535 12.0213C220.605 12.0213 219.736 12.2386 218.928 12.6731C218.145 13.0834 217.508 13.6748 217.019 14.4473V26.6134H211.071Z" fill="white"/>
<path d="M232.765 26.9393C231.394 26.9393 230.171 26.6858 229.094 26.1789C228.041 25.672 227.209 24.972 226.597 24.0788C226.009 23.1857 225.716 22.1597 225.716 21.0011C225.716 19.1665 226.413 17.7543 227.809 16.7646C229.228 15.7508 231.199 15.2439 233.72 15.2439C235.237 15.2439 236.706 15.4249 238.126 15.787V14.8456C238.126 13.88 237.807 13.1679 237.171 12.7093C236.559 12.2265 235.641 11.9851 234.417 11.9851C233.658 11.9851 232.802 12.1058 231.847 12.3472C230.917 12.5886 229.816 12.9748 228.543 13.5059L226.413 9.19702C228.004 8.49698 229.534 7.97799 231.003 7.64004C232.496 7.27795 233.989 7.09691 235.482 7.09691C238.174 7.09691 240.267 7.7366 241.76 9.01597C243.253 10.2712 244 12.0454 244 14.3387V26.6134H238.126V25.4547C237.342 25.9858 236.51 26.372 235.629 26.6134C234.772 26.8307 233.818 26.9393 232.765 26.9393ZM231.37 20.8924C231.37 21.4959 231.639 21.9666 232.178 22.3046C232.716 22.6425 233.463 22.8115 234.417 22.8115C235.127 22.8115 235.788 22.7391 236.4 22.5942C237.036 22.4494 237.612 22.2201 238.126 21.9063V19.4441C237.563 19.2993 236.987 19.1906 236.4 19.1182C235.812 19.0458 235.213 19.0096 234.601 19.0096C233.573 19.0096 232.777 19.1786 232.214 19.5165C231.651 19.8303 231.37 20.289 231.37 20.8924Z" fill="white"/>
</svg>
