<svg width="20" height="21" viewBox="0 0 20 21" fill="none" xmlns="http://www.w3.org/2000/svg">
<path d="M9.20709 2.93939C9.45709 2.17189 10.5429 2.17189 10.7921 2.93939L12.0579 6.83439C12.1124 7.00147 12.2183 7.14704 12.3605 7.25032C12.5027 7.35359 12.6739 7.40927 12.8496 7.4094H16.9454C17.7529 7.4094 18.0879 8.44273 17.4354 8.91773L14.1221 11.3244C13.9798 11.4279 13.8738 11.5737 13.8195 11.7411C13.7652 11.9085 13.7652 12.0887 13.8196 12.2561L15.0846 16.1511C15.3346 16.9194 14.4554 17.5577 13.8029 17.0827L10.4896 14.6761C10.3472 14.5725 10.1756 14.5168 9.99959 14.5168C9.82353 14.5168 9.652 14.5725 9.50959 14.6761L6.19626 17.0827C5.54376 17.5577 4.66459 16.9186 4.91459 16.1511L6.17959 12.2561C6.23399 12.0887 6.23402 11.9085 6.17968 11.7411C6.12534 11.5737 6.01942 11.4279 5.87709 11.3244L2.56376 8.91773C1.91042 8.44273 2.24709 7.4094 3.05376 7.4094H7.14876C7.32463 7.40944 7.49601 7.35384 7.63836 7.25056C7.78071 7.14728 7.88674 7.0016 7.94126 6.83439L9.20709 2.93939Z" stroke="white" stroke-linecap="round" stroke-linejoin="round"/>
</svg>
